<?xml version="1.0" standalone="no"?>
<!DOCTYPE svg PUBLIC "-//W3C//DTD SVG 20010904//EN"
 "http://www.w3.org/TR/2001/REC-SVG-20010904/DTD/svg10.dtd">
<svg version="1.0" xmlns="http://www.w3.org/2000/svg"
 width="135.000000pt" height="158.000000pt" viewBox="0 0 135.000000 158.000000"
 preserveAspectRatio="xMidYMid meet">

<g transform="translate(0.000000,158.000000) scale(0.100000,-0.100000)"
fill="#000000" stroke="none">
<path d="M920 1493 c0 -16 5 -35 10 -43 7 -11 10 -4 10 28 0 23 -4 42 -10 42
-5 0 -10 -12 -10 -27z"/>
<path d="M767 1493 c-4 -3 -7 -20 -7 -37 0 -17 -9 -40 -22 -53 -20 -22 -21
-23 -2 -23 11 0 36 9 57 20 42 23 68 25 85 8 9 -9 12 -8 12 6 0 22 -19 58 -39
73 -17 13 -73 17 -84 6z"/>
<path d="M1065 1345 c50 -31 116 -95 110 -105 -3 -5 -1 -11 3 -14 13 -8 6 -53
-10 -69 -22 -22 -50 -11 -90 34 l-37 43 8 -35 c5 -19 12 -43 17 -53 5 -14 4
-17 -4 -12 -18 11 -14 0 5 -15 14 -12 16 -12 8 0 -5 10 -4 12 3 7 7 -4 12 -13
12 -20 0 -14 164 -100 214 -112 l28 -7 -7 64 c-4 35 -16 88 -27 118 -22 57
-81 131 -105 131 -8 0 -11 5 -7 12 4 6 3 8 -3 5 -5 -3 -35 7 -68 24 -70 35
-106 38 -50 4z"/>
<path d="M700 1312 c-24 -11 -29 -18 -18 -20 25 -5 99 18 93 28 -9 15 -36 12
-75 -8z"/>
<path d="M854 1298 c-4 -6 1 -17 10 -26 11 -12 16 -13 16 -3 0 8 7 10 20 6 15
-5 18 -3 14 8 -6 18 -52 28 -60 15z"/>
<path d="M986 1203 c9 -39 25 -55 44 -43 11 7 11 10 2 10 -7 0 -10 5 -6 12 4
7 3 8 -4 4 -8 -4 -16 3 -22 18 -13 34 -22 33 -14 -1z"/>
<path d="M605 1144 c-16 -19 -32 -38 -35 -41 -3 -3 2 -2 10 2 8 5 42 10 75 11
98 2 105 3 105 17 0 20 -36 47 -48 35 -6 -6 -12 -6 -16 1 -15 24 -61 11 -91
-25z"/>
<path d="M1022 1103 c-6 -3 -10 -9 -6 -14 7 -12 44 -12 44 0 0 11 -21 19 -38
14z"/>
<path d="M697 970 c-33 -48 -12 -140 32 -140 21 0 36 15 45 48 5 15 3 22 -6
22 -7 0 -22 22 -33 47 l-21 47 -17 -24z"/>
<path d="M991 934 c-43 -54 -13 -152 37 -125 20 10 47 69 37 79 -3 3 -5 -1 -5
-9 0 -8 -9 0 -20 16 -11 17 -19 38 -16 48 6 25 -9 21 -33 -9z"/>
<path d="M490 903 c0 -13 5 -23 10 -23 6 0 10 -9 10 -21 0 -24 80 -180 89
-174 4 2 12 -5 19 -16 11 -17 9 -19 -18 -19 -16 0 -30 -4 -30 -9 0 -16 -29 -6
-44 15 -10 12 -18 16 -24 9 -11 -12 -33 -97 -27 -104 9 -9 70 -2 73 8 6 19 77
13 97 -8 9 -11 42 -30 72 -43 45 -18 53 -26 49 -43 -3 -11 -8 -43 -12 -72 -5
-38 -11 -53 -25 -56 -53 -14 5 -44 67 -34 38 6 43 -2 17 -25 -27 -23 -51 -28
-78 -18 -23 9 -24 7 -27 -38 -3 -44 -6 -48 -43 -68 -53 -27 -70 -59 -47 -90 9
-12 20 -20 24 -18 4 2 9 0 12 -4 7 -12 86 -12 86 0 0 5 4 7 9 4 4 -3 32 22 61
55 48 55 52 63 40 82 -7 12 -12 47 -11 83 1 56 -1 63 -20 69 -20 7 -21 12 -15
68 3 34 9 64 14 68 4 3 46 2 94 -4 72 -8 88 -13 93 -28 8 -23 19 -24 41 -2 15
16 18 16 46 0 16 -9 47 -17 69 -17 35 0 41 4 66 42 14 24 28 38 30 32 7 -21
42 -3 58 29 20 40 19 45 -7 49 -13 2 -23 10 -23 18 0 8 -7 15 -15 15 -9 0 -19
-20 -28 -58 -17 -67 -36 -65 -21 2 5 24 7 46 4 49 -6 7 -5 8 -33 -50 -18 -39
-19 -48 -7 -48 8 0 15 -6 15 -13 0 -19 -21 -37 -44 -37 -24 0 -106 32 -106 42
0 8 57 28 80 28 12 0 19 11 23 38 2 20 6 44 8 52 3 12 -10 16 -59 20 l-64 5
29 26 c15 15 40 29 56 33 16 4 27 13 27 23 0 13 -3 14 -12 5 -7 -7 -32 -12
-57 -12 -32 0 -41 3 -32 9 9 6 -8 7 -47 4 -56 -5 -66 -3 -102 22 -42 29 -54
29 -140 5 -41 -12 -50 -11 -85 6 -22 10 -73 50 -112 89 -62 60 -73 67 -73 48z
m430 -223 c-36 -12 -100 -12 -100 0 0 6 27 10 63 9 46 -1 56 -3 37 -9z m-48
-70 c-3 -30 -8 -40 -22 -40 -14 0 -17 -5 -13 -21 8 -29 -18 -21 -32 9 -8 18
-18 22 -61 22 -28 0 -79 3 -113 6 -50 6 -61 10 -59 23 2 9 10 16 18 15 194
-12 270 -14 270 -4 0 5 -9 10 -21 10 -11 0 -17 5 -14 10 3 6 16 10 28 10 20 0
22 -4 19 -40z m101 33 c-7 -2 -21 -2 -30 0 -10 3 -4 5 12 5 17 0 24 -2 18 -5z
m-76 -109 c-3 -3 -12 -4 -19 -1 -8 3 -5 6 6 6 11 1 17 -2 13 -5z"/>
<path d="M33 733 c-13 -50 -9 -236 5 -240 9 -4 12 27 12 131 0 75 -2 136 -5
136 -2 0 -8 -12 -12 -27z"/>
<path d="M480 717 c0 -16 9 -28 25 -35 37 -17 38 -16 13 23 -27 41 -38 44 -38
12z"/>
<path d="M1270 707 c-7 -12 -20 -33 -29 -47 l-15 -25 25 23 c14 12 31 22 37
22 13 0 17 36 4 44 -4 2 -14 -5 -22 -17z"/>
<path d="M435 614 c-18 -48 -14 -68 9 -43 16 17 31 89 18 89 -5 0 -17 -21 -27
-46z"/>
<path d="M993 358 c-6 -7 -11 -54 -11 -104 0 -90 0 -93 32 -127 47 -51 138
-62 191 -23 30 22 9 74 -43 109 -37 25 -42 33 -42 68 l0 39 -20 -20 c-27 -27
-53 -25 -87 5 l-28 24 51 1 c33 0 56 5 64 15 10 12 9 16 -5 21 -9 4 -21 2 -28
-5 -14 -14 -47 -15 -47 -1 0 14 -16 12 -27 -2z"/>
</g>
</svg>
